<?xml version="1.0"?>
<svg width="512" height="512" xmlns="http://www.w3.org/2000/svg" xmlns:svg="http://www.w3.org/2000/svg" version="1.1" xml:space="preserve">
 <g class="layer">
  <title>Layer 1</title>
  <g id="svg_1">
   <g id="svg_2">
    <path d="m249.53,158.13c25.61,0 49.83,9.84 68.2,27.69c3.2,3.11 8.28,3.13 11.5,0.06l38.46,-36.63c3.33,-3.17 3.4,-8.63 0.14,-11.88c-31.62,-31.53 -73.64,-48.9 -118.3,-48.9c-43.39,0 -84.54,16.53 -115.87,46.54c-3.31,3.16 -3.42,8.41 -0.25,11.72c3.16,3.31 8.41,3.42 11.72,0.25c28.23,-27.03 65.31,-41.92 104.4,-41.92c37.39,0 72.72,13.5 100.39,38.21l-26.55,25.29c-20.63,-17.48 -46.56,-27.01 -73.84,-27.01c-63.11,0 -114.45,51.34 -114.45,114.45s51.34,114.45 114.45,114.45c52.26,0 97.84,-35.3 110.85,-85.84c1.33,-5.17 -2.7,-10.36 -8.03,-10.36l-85.68,0l0,-36.5l89.02,0c4.58,0 8.3,-3.71 8.3,-8.29c0,-4.58 -3.72,-8.29 -8.3,-8.29l-97.31,0c-4.58,0 -8.29,3.71 -8.29,8.29l0,53.08c0,4.58 3.71,8.29 8.29,8.29l82.65,0c-14.27,37.6 -50.48,63.04 -91.5,63.04c-53.96,0 -97.86,-43.91 -97.86,-97.87s43.9,-97.87 97.86,-97.87z" id="svg_3"/>
   </g>
  </g>
  <g id="svg_4">
   <g id="svg_5">
    <path d="m414.74,228.09c-0.67,-4 -4.13,-6.92 -8.18,-6.92l-15.48,0c-4.58,0 -8.29,3.71 -8.29,8.29c0,4.58 3.71,8.3 8.29,8.3l8.3,0c0.73,6.06 1.1,12.17 1.1,18.24c0,83.23 -67.71,150.95 -150.95,150.95s-150.94,-67.72 -150.94,-150.95c0,-30.02 8.78,-59.02 25.41,-83.85c2.55,-3.81 1.53,-8.96 -2.28,-11.51c-3.8,-2.55 -8.96,-1.53 -11.5,2.28c-18.46,27.58 -28.22,59.77 -28.22,93.08c0,92.38 75.16,167.53 167.53,167.53s167.54,-75.15 167.54,-167.53c0,-9.31 -0.79,-18.7 -2.33,-27.91z" id="svg_6"/>
   </g>
  </g>
 </g>
</svg>